<?xml version="1.0" encoding="utf-8"?>
<!-- Generator: Adobe Illustrator 25.4.0, SVG Export Plug-In . SVG Version: 6.00 Build 0)  -->
<svg version="1.1" id="레이어_1" xmlns="http://www.w3.org/2000/svg" xmlns:xlink="http://www.w3.org/1999/xlink" x="0px"
	 y="0px" viewBox="0 0 283.5 110.2" style="enable-background:new 0 0 283.5 110.2;" xml:space="preserve">
<style type="text/css">
	.st0{fill:#1E7639;}
	.st1{fill:#0B6A37;}
	.st2{fill:#FFFFFF;}
</style>
<g>
	<g>
		<path class="st0" d="M282.4,68.2h-8.3v-13h8.3v-9.9h-62v9.9h8.3v13h-8.3v10h62V68.2z M243.2,55.1h16.3v13h-16.3V55.1z"/>
		<polygon class="st0" points="273,95.3 274.7,80 260.1,80 258.4,95.3 244.2,95.3 242.6,80 228,80 229.6,95.3 219.2,95.3
			219.2,105.3 283.5,105.3 283.5,95.3 		"/>
		<path class="st0" d="M66.5,80H3.8v18.4c0,4,3.2,7.2,7.2,7.2h55.5V80z M51.5,96.2H18.8v-6.7h32.7V96.2z"/>
		<path class="st0" d="M66.5,68.2h3.8v9.5H0v-9.5h23.8v-8.6h15v8.6h12.7V54.7H3.8v-9.5H61c3.1,0,5.6,2.5,5.6,5.6V68.2z"/>
		<g>
			<path class="st1" d="M68.8,6.9c-0.1,0-0.1,0-0.2,0C68.7,6.9,68.8,6.9,68.8,6.9z"/>
			<path class="st1" d="M63,10.1c0,0,0-0.1,0-0.1C63,10,63,10,63,10.1z"/>
			<path class="st1" d="M65.8,15.7c-0.2-0.2-0.3-0.3-0.5-0.5C65.5,15.4,65.6,15.5,65.8,15.7z"/>
			<path class="st1" d="M63,9.7c0-0.1,0-0.2,0-0.3C63,9.5,63,9.6,63,9.7z"/>
			<path class="st1" d="M63,10.4c0-0.1,0-0.1,0-0.2C63,10.3,63,10.3,63,10.4z"/>
			<path class="st1" d="M63.4,12.1c-0.1-0.3-0.2-0.7-0.3-1C63.2,11.4,63.3,11.7,63.4,12.1z"/>
			<path class="st1" d="M63,10.7c0-0.1,0-0.1,0-0.2C63,10.5,63,10.6,63,10.7z"/>
			<path class="st1" d="M63.1,11c0-0.1,0-0.2,0-0.2C63.1,10.9,63.1,10.9,63.1,11z"/>
			<path class="st1" d="M66.4,16.2c-0.2-0.2-0.4-0.3-0.6-0.5C66,15.9,66.2,16,66.4,16.2z"/>
			<path class="st2" d="M113.2,80.6c-0.8-1.9-1.6-3.9-2.2-5.7c-0.7-1.8-1.3-3.4-1.7-4.2c-0.3-0.6-0.7-1.2-1.2-2.1
				c-1.5-2.5-3.8-6.1-6.1-9.5c-0.2-0.3-0.5-0.4-0.8-0.2c-0.3,0.1-0.4,0.4-0.4,0.7c0.8,3.2,1.5,5.7,2.1,7.2
				c1.6,4.6,3.8,10.8,3.8,10.8l2.1,5.4c0.1,0.5,0.5,3.2,0.5,4.8v0.2c0,1.7,0,2.5-0.6,3c-0.6,0.6-1.6,0.7-1.6,0.7c0,0-0.1,0-0.1,0
				c-0.6,0.2-5.9,1.7-7.4,3.6c-0.2,0.2-1.3,1.5-1.3,3.1c0,1.2,0.9,3.1,6.9,3.1c0.3,0,0.5-0.2,0.6-0.4c0.4-1,1.1-2,2.1-2.8
				c1.7-1.4,4.2-2.6,7.5-3.4c0.3-0.1,0.5-0.3,0.5-0.6l0-3.6v-0.1C116.2,87.6,114.8,84.3,113.2,80.6z"/>
			<path class="st2" d="M176,93.3c-0.3-0.4-0.5-0.7-0.9-1.3c-0.2-0.3-0.5-0.8-0.9-1.4c-0.3-0.5-0.7-1-1-1.5
				c-0.3-0.6-0.7-1.1-1.1-1.7c-0.1-0.2-0.3-0.5-0.5-0.9c-0.4-0.8-0.9-1.8-1.4-2.9c-0.6-1.3-1.2-2.7-1.9-4c-0.1-0.3-0.4-0.4-0.7-0.3
				c-1.1,0.3-2.1,0.5-3,0.7c-0.2,0-0.4,0.2-0.5,0.4c-0.1,0.2,0,0.5,0.1,0.6c1.7,2.1,2.9,4.6,3.3,6.8l0.1,0.7c0.4,2.1,0.7,4-0.2,4.5
				c-0.5,0.3-1.2,0.4-2,0.6c-1.2,0.2-2.6,0.6-4.3,1.4c-2.8,1.4-4,3-4,5.2c0,2,3.1,3.4,7.7,3.4c1,0,2.5,0,4.4-0.1
				c0.3,0,0.5-0.2,0.6-0.5c0.2-0.9,0.7-1.9,1.4-2.8c1.2-1.6,2.9-2.9,4.2-3.9l0.3-0.2c0.2-0.2,0.5-0.5,0.6-0.9
				C176.6,94.1,176.1,93.4,176,93.3z"/>
			<path class="st2" d="M197.8,84.3c0-0.5,0-1.1,0-1.8c0-3.5-0.1-8.3,1-14.4l0.1-0.6c1.3-6.9,2.2-11.9,2.2-15.8c0-4.6-1.4-11-5.4-15
				c-3.9-3.9-7-6.6-14.2-9.7c-7.2-3-17.4-4-20.9-4c-1.3,0-4.8,0.2-8.8,0.5c-5.2,0.4-11.1,0.8-13.8,0.8c-4.8,0-11.9-0.3-13.9-0.6
				c-2-0.3-9.1-3.4-14.2-6.4c-5.1-2.9-9.3-6.5-9.3-6.5c-0.2-0.2-0.5-0.2-0.7-0.1c0,0-1.3,0.6-2.6,1.2c0.4-0.5,0.7-1.1,0.8-1.6
				c0.4-1.4,0.3-2.6-0.1-3.2C97.5,6.4,96.8,6,96,6c-0.9,0-1.7,0.2-2.6,0.5c-0.3,0.1-0.7,0.3-0.9,0.4c0-0.1,0.1-0.2,0.1-0.3
				c0-0.2-0.1-0.4-0.3-0.5C92,6,87.4,2.5,81.2,2.5h-0.8c-0.4-0.1-3.3-0.3-5.8,1.7c-0.5,0.3-1,0.5-1.4,0.7c-1.4,0.8-2.3,1.3-4.3,1.3
				h-0.2c-0.4,0-1.2,0-1.7,0c-0.2,0-0.4,0.1-0.5,0.2c-0.1,0.1-0.2,0.3-0.2,0.5c0,0.7,0,1.9-1,2.2c-0.6,0.2-1.3,0.1-2-0.5
				c-0.2-0.2-0.4-0.2-0.7-0.1c-0.2,0.1-0.4,0.3-0.4,0.5c0,0.1,0,0.3,0,0.4c0,0.1,0,0.2,0,0.3c0,0.1,0,0.2,0,0.3l0.1,0.8
				c0,0,0,0.1,0,0.1l0,0.2c0,0,0,0.1,0,0.1c0.1,0.3,0.2,0.7,0.3,1c0,0,0,0.1,0,0.1c0.1,0.2,0.8,1.5,2,2.4c0,0-0.1,0.1-0.1,0.1
				c-0.2,0.2-0.1,0.6,0.1,0.8c0.2,0.2,0.3,0.3,0.6,0.5c0.2,0.2,0.4,0.3,0.6,0.5c1.8,1.3,2.8,1.7,4,2.1c0.8,0.3,1.6,0.6,2.9,1.3
				c3.1,1.7,6.2,4.7,9.1,7.6c2.8,2.8,7.1,7.1,9.3,10.9c0.3,0.5,0.8,1.4,1.5,2.6l1.3,2.3c1.2,2,2.9,5.1,4.9,8.4
				c2.1,3.4,4,6.5,5.6,9.1c2.6,3.9,4.7,6.9,6.4,8.8c0.3,0.8,2,5.9,3.8,10c1.7,3.8,3.6,8.7,3.6,12v0.1c0,3.1-0.1,4.3-1.9,5
				c-0.2,0.1-0.4,0.1-0.6,0.2c-3.3,0.8-5.6,1.9-7.1,3.3c-1,0.9-1.5,2-1.5,3.2c0,0.1,0,0.2,0,0.2c0,4.1,6.4,4.1,11,4.1l1.6,0
				c0.5,0,1.1,0,1.6,0c0.6,0,1.1,0,1.7,0c4.7,0,9.4-0.3,11.5-3.4c0.2-0.3,0.6-1.1,0.3-3.6c-0.3-2.6-0.1-6.6,0.4-7.9
				c0.1-0.2,0.2-0.4,0.2-0.6c0.8-1.8,2-4.8,2-9.2c0-4.8-1.6-11.1-2.4-13.4c-0.1-0.2-0.2-0.4-0.2-0.6c0.3,0.4,0.6,0.9,0.8,1.4
				c1.4,2.8,2.1,5.2,2.1,5.3c0.1,0.2,0.2,0.4,0.4,0.4c0.2,0.1,5.9,1.9,14.9,2.5c1.6,0.1,3.1,0.2,4.4,0.2c1.9,0.1,3.3,0.1,4.5,0
				c2.2-0.1,3.4-0.3,4.5-0.6c0.2-0.1,0.3-0.2,0.4-0.4c0.1-0.2,0.1-0.4,0-0.5c0,0-0.5-0.9-1.1-2.2c-0.5-1-0.9-2-1.2-2.8
				c-0.4-0.9-0.6-1.7-0.8-2.3c-0.1-0.6-0.3-1.2-0.4-1.8c0.3,0.7,0.6,1.4,0.9,2c0.2,0.5,0.5,1.1,0.9,1.8l0.3,0.5
				c0.4,0.9,0.9,1.8,1.4,2.9c0.5,0.9,0.9,1.9,1.4,2.9c2.2,4.3,3.6,6.9,4.4,8.1c0.7,1,1.5,2.1,2.1,3.1l1.1,1.6c0.6,0.8,1.1,1.5,1.4,2
				c0.7,0.9,0.7,1.6,0.7,2.1l0,0.1c0,0.3,0,1.1-1.6,2.3l0.4,0.5l-0.5-0.4l-0.2,0.1c-0.4,0.3-0.9,0.7-1.4,1.1
				c-1.5,1.3-2.5,2.3-3.1,3.3c-0.4,0.6-0.5,1.2-0.5,1.8c0,0.5,0.2,1,0.6,1.4c1.2,1.3,4.4,1.6,6.8,1.6c2,0,15.4-0.4,17.6-1.4
				c2.4-1.1,3.6-2.7,3.6-5c0-1-0.5-3.5-1-6.4C198.6,90.5,197.8,86.3,197.8,84.3z M63.1,11.1C63.1,11.1,63.1,11.1,63.1,11.1
				L63.1,11.1L63.1,11.1z"/>
			<g>
				<g>
					<path class="st0" d="M76.9,7c-0.8,0-1.5,0.3-2.1,0.9c-0.2,0.2-0.2,0.6,0,0.9c0.2,0.2,0.6,0.2,0.9,0c0.3-0.3,0.7-0.5,1.2-0.5
						c0.7,0,1.4,0.5,1.5,1.2c0.1,0.3,0.3,0.4,0.6,0.4c0.1,0,0.1,0,0.2,0c0.3-0.1,0.5-0.4,0.4-0.7C79.2,7.9,78.1,7,76.9,7z"/>
				</g>
				<g>
					<g>
						<path class="st0" d="M199.6,83.9c0-3.2,0.1-12.5,1.6-16.7l1.1-5.3c0.7-3.4,1.6-6.3,1.6-10.4c0-4.1-1.9-12.1-6.4-16.6
							c-4-4-7.8-7.4-14.9-10.5c-8.3-3.6-19.3-4-21.8-4c-1.4,0-5.3,0.1-9.6,0.3c-5.2,0.3-10.6,0.7-13.2,0.7c-5.1,0-11.8-0.3-13.5-0.6
							c-2.9-0.6-8.1-3-13.3-6c-4.9-2.8-8.9-6.2-8.9-6.2c0,0,0.2-0.5,0.2-1.4c0-0.9-0.5-1.9-1-2.4c-0.5-0.5-1.7-1.3-3.8-1.3
							c-0.6,0-3,0.1-3.7,0.3l-0.2-0.1C93.4,3.5,87.8,0,80.9,0h-0.2l-0.2,0c-0.4,0.1-4.5,0-7.1,2C71.2,3.8,67,4,67,4
							c-2.6,0-5.3-0.8-6.8,1.5c-0.9,1.6-0.5,4-0.5,4.1c0,1.1,0.4,5.7,4.8,9c2.1,1.5,3.4,2,4.6,2.4c0.7,0.3,1.5,0.5,2.5,1.1
							c2.8,1.5,5.7,4.4,8.5,7.1c2.7,2.7,6,6.7,8.4,10.2c0.4,0.5,1.1,1.8,1.8,3c1.4,2.4,7.7,15.4,7.7,15.4c0.1,0.4,1,4.9,2.7,9.6
							c1.6,4.5,3.7,10.7,3.8,10.8l1.9,5.4c0.2,1,0.3,2.3,0.3,4.1v1.6c-2,0.6-6.8,2.1-8.7,4.4c-0.5,0.6-2.6,2.7-2.6,5
							c0,2,1.8,4.6,9.5,4.8c0,1.4,0.6,4.9,5.8,6.1c2.3,0.5,5.1,0.6,7.8,0.6l0.8,0l0.8,0c0.5,0,1.1,0,1.6,0c0.6,0,1.1,0,1.7,0
							c5.1,0,11.1-0.3,13.9-4.5c0.8-1.1,1.1-2.9,0.8-5.4c-0.4-3.9,0.2-6.5,0.2-6.5c0.8-1.8,2.2-5.9,2.2-10.8c0-1.2,0-1.6-0.1-2.9
							c2.6,0.2,8.6,0.4,14.6,0.8c2.9,0.2,4.5,0.1,6.6,0c0.6,0.4,1.1,0.9,1.4,1.3c1.7,2.3,2.4,3.9,2.8,5.2c0.4,1.2,0.3,3.9,0.3,3.9
							c-0.2,0-1.4,0.3-1.6,0.4c-1.2,0.3-2.5,0.5-4.5,1.5c-1.3,0.7-5.3,3-5.3,7.1c0,2.8,2.3,5.1,9.7,5.1c1.2,0,2.9,0,4.8-0.1
							c0.4,1.3,1.5,3,4.8,3.8c1.7,0.4,3.6,0.5,5,0.5c0.1,0,15.5-0.3,18.7-1.7c4.5-2,5-5.3,5-7.2c0-1.1-0.6-3.4-1.2-7.1
							C200.9,90.2,199.6,85.7,199.6,83.9z M105.4,100.8C105.4,100.8,105.4,100.8,105.4,100.8c-4.1,0-6.3-1-6.3-2.5
							c0-1.5,1.1-2.6,1.1-2.6c1.4-1.8,7.1-3.4,7.1-3.4s1.1-0.1,1.9-0.9c0.8-0.8,0.8-1.9,0.8-3.7c0-1.8-0.6-5-0.6-5l-2.2-5.4
							c0,0-2.2-6.2-3.8-10.8c-0.6-1.8-1.4-4.5-2-7.2c2.4,3.7,4.6,7.1,6.1,9.5c0.5,0.8,0.9,1.5,1.2,2.1c0.8,1.6,2.3,6.1,3.9,9.9
							c1.4,3.3,2.9,6.8,2.9,9.7l0,0.1l0,3.6c-3.7,0.9-6.2,2.1-7.8,3.5C106.5,98.7,105.8,99.7,105.4,100.8z M170.7,99.7
							c-0.7,0.9-1.3,2-1.5,3.1c-1.7,0.1-3.3,0.1-4.4,0.1c-4.3,0-7.1-1.2-7.1-2.7c0-1.7,0.9-3.2,3.7-4.6c2.8-1.4,4.9-1.3,6.3-2
							c1.4-0.8,0.8-3.2,0.4-5.8c-0.4-2.6-2-5.3-3.4-7.1c0,0,0,0,0,0c0.9-0.1,1.8-0.3,3-0.7c1.3,2.5,2.4,5.3,3.3,7
							c0.2,0.4,0.4,0.7,0.5,0.9c0.7,1,1.3,2.1,2.1,3.2c1.1,1.5,1.3,1.9,1.8,2.7c0,0,0.5,0.5,0.3,1.2c-0.1,0.2-0.2,0.4-0.4,0.6
							l-0.3,0.2C173.7,96.7,172,98.1,170.7,99.7z M196.4,105c-2.1,0.9-15,1.4-17.4,1.4c-1.9,0-5.2-0.2-6.3-1.4
							c-0.2-0.3-0.4-0.6-0.4-0.9c0-0.5,0.2-1,0.5-1.4c0.6-1.1,1.8-2.2,3-3.2c0.6-0.5,1.1-0.9,1.6-1.2c0,0,0.1,0,0.1-0.1
							c1.7-1.3,1.9-2.3,1.9-2.8c0-0.6,0.1-1.5-0.8-2.6c-0.3-0.4-0.8-1.1-1.4-2c-0.9-1.4-2.1-3.1-3.2-4.7c-0.9-1.3-2.6-4.6-4.3-8
							c-0.5-1-1-1.9-1.4-2.8c-0.5-1-1-2-1.4-2.9c-0.5-1-0.9-1.8-1.2-2.4c-1.5-3-2.8-7.7-2.8-7.7c0.2,2.9,0.6,5.3,1.1,8
							c0.2,0.7,0.4,1.6,0.8,2.4c0.4,1,0.8,2,1.2,2.9c0.6,1.3,1.1,2.2,1.1,2.2c-1,0.3-2.1,0.5-4.4,0.6c-0.5,0-1.1,0-1.7,0
							c-0.8,0-1.7,0-2.7-0.1c-1.3,0-2.7-0.1-4.4-0.2c-9-0.6-14.7-2.4-14.7-2.4s-0.8-2.5-2.2-5.4c-1.4-2.8-3.6-4.5-3.6-4.5
							s1,2,1.8,4.1s2.4,8.5,2.4,13.2s-1.6,7.9-2.2,9.5c-0.6,1.6-0.8,5.7-0.5,8.3c0.3,2.5-0.2,3.1-0.2,3.1c-1.9,2.9-6.4,3.1-11,3.1
							c-1.1,0-2.2,0-3.3,0c-0.5,0-1.1,0-1.6,0c-5.1,0-10.4-0.2-10.4-3.5c0-0.1,0-0.1,0-0.2c0.1-1.1,0.6-2,1.3-2.7
							c1.7-1.7,4.7-2.6,6.8-3.1c0.2-0.1,0.5-0.1,0.7-0.2c2.3-0.8,2.3-2.7,2.3-5.7c0-3.2-1.7-7.7-3.6-12.3c-2-4.5-3.9-10.1-3.9-10.1
							c-1.9-2.1-4.1-5.3-6.5-8.8c-1.9-2.9-3.8-6-5.6-9c-1.8-3.1-3.5-6-4.9-8.4c-1.3-2.3-2.3-4-2.8-4.9c-2.2-3.8-6.3-7.9-9.4-11
							c-3.1-3.1-6.1-6-9.2-7.7c-3.1-1.7-3.8-1.2-6.8-3.4c-0.2-0.2-0.4-0.3-0.6-0.5c0,0,0,0,0,0c-0.2-0.2-0.3-0.3-0.5-0.5
							c0,0,0,0,0,0h0c0.3,0.1,0.5,0.2,0.8,0.3c2.4,0.8,4.9,0.8,4.9,0.8s-2.6-0.7-4.6-1.4c-1.9-0.7-2.9-2.7-3-2.8l0,0c0,0,0,0,0,0
							c-0.1-0.3-0.2-0.7-0.3-1c0,0,0-0.1,0-0.1c0-0.1,0-0.2,0-0.2c0,0,0-0.1,0-0.1c0-0.1,0-0.1,0-0.2c0,0,0-0.1,0-0.1
							c0-0.1,0-0.1,0-0.2c0-0.1,0-0.1,0-0.1c0,0,0-0.1,0-0.1c0-0.1,0-0.2,0-0.2c0-0.1,0-0.2,0-0.3c0,0,0,0,0,0c0-0.1,0-0.2,0-0.3
							c0,0,0,0,0,0c0.6,0.5,1.5,1.1,2.6,0.7C67,9.2,67.1,7.5,67,6.8c0,0,0,0,0,0c0.5,0,1.2,0,1.7,0c0.1,0,0.1,0,0.2,0
							c2.8,0,3.8-1,6.1-2.1c2.5-2,5.4-1.6,5.4-1.6h0.9c6,0,10.7,3.5,10.7,3.5c-0.9,0.6-1.5,2.5-1.5,2.5s0.9-1.1,3.3-2
							c0.9-0.3,1.7-0.4,2.4-0.4c0.6,0,1.1,0.3,1.4,0.8c0.3,0.5,0.4,1.5,0,2.7c-0.3,1.2-2.3,3.3-2.3,3.3c1.2-0.4,4.9-2.2,4.9-2.2
							s4.2,3.6,9.4,6.6c5.2,3,12.3,6.1,14.4,6.4c2.1,0.4,9.2,0.6,14.1,0.6s19.7-1.3,22.7-1.3c2.9,0,13.3,0.9,20.7,4
							c7.4,3.1,10.4,6,14,9.6c3.6,3.6,5.2,9.5,5.2,14.5c0,3.9-1,9-2.3,16.2c-1.3,7.2-1,12.6-1,16.3c0,3.6,2.4,14.3,2.4,16.4
							C199.6,102.7,198.4,104.1,196.4,105z"/>
					</g>
				</g>
			</g>
		</g>
	</g>
</g>
</svg>
